<svg width="215" height="94" viewBox="0 0 215 94" fill="none" xmlns="http://www.w3.org/2000/svg">
<path d="M29.7097 13.5C29.7097 19.9308 23.6061 25.5 15.6048 25.5C7.60357 25.5 1.5 19.9308 1.5 13.5C1.5 7.06923 7.60357 1.5 15.6048 1.5C23.6061 1.5 29.7097 7.06923 29.7097 13.5Z" fill="white" stroke="#9BB9CC" stroke-width="3"/>
<path d="M86.3494 53.5C86.3494 59.9308 80.2459 65.5 72.2446 65.5C64.2433 65.5 58.1398 59.9308 58.1398 53.5C58.1398 47.0692 64.2433 41.5 72.2446 41.5C80.2459 41.5 86.3494 47.0692 86.3494 53.5Z" fill="white" stroke="#9BB9CC" stroke-width="3"/>
<path d="M144.145 26.5C144.145 32.9308 138.042 38.5 130.04 38.5C122.039 38.5 115.935 32.9308 115.935 26.5C115.935 20.0692 122.039 14.5 130.04 14.5C138.042 14.5 144.145 20.0692 144.145 26.5Z" fill="white" stroke="#9BB9CC" stroke-width="3"/>
<path d="M213.5 80.5C213.5 86.9308 207.396 92.5 199.395 92.5C191.394 92.5 185.29 86.9308 185.29 80.5C185.29 74.0692 191.394 68.5 199.395 68.5C207.396 68.5 213.5 74.0692 213.5 80.5Z" fill="white" stroke="#9BB9CC" stroke-width="3"/>
<line y1="-0.5" x2="45.2053" y2="-0.5" transform="matrix(0.767109 0.641517 -0.745163 0.666882 26.5861 17)" stroke="#9BB9CC"/>
<line y1="-0.5" x2="61.1377" y2="-0.5" transform="matrix(0.756269 0.654261 -0.756269 0.654261 142.177 34)" stroke="#9BB9CC"/>
<line y1="-0.5" x2="37.1442" y2="-0.5" transform="matrix(-0.90247 0.430754 -0.537705 -0.843133 119.059 32)" stroke="#9BB9CC"/>
</svg>
