<svg width="2375" height="1214" viewBox="0 0 2375 1214" fill="none" xmlns="http://www.w3.org/2000/svg">
<path d="M187.411 171.672C236.163 146.805 302.222 132.84 371.094 132.84C439.965 132.84 506.024 146.805 554.776 171.672C581.19 185.172 601.596 201.426 614.604 219.324C627.612 237.222 632.914 256.344 630.15 275.385C627.386 294.426 616.62 312.938 598.587 329.659C580.553 346.38 555.677 360.916 525.654 372.276L801.442 634.078C842.01 626.526 885.615 624.249 928.333 627.451C971.051 630.653 1011.54 639.234 1046.16 652.421L1276.36 534.758C1237.01 507.876 1219.04 474.372 1226.08 440.991C1233.12 407.61 1264.63 376.831 1314.28 354.851C1363.93 332.871 1428.03 321.322 1493.67 322.528C1559.31 323.735 1621.62 337.608 1668.05 361.355H1668.07C1694.48 374.855 1714.89 391.109 1727.89 409.007C1740.9 426.905 1746.2 446.027 1743.44 465.068C1740.68 484.109 1729.91 502.621 1711.88 519.342C1693.84 536.063 1668.97 550.599 1638.94 561.959L1914.72 823.765C1961.22 815.09 2011.6 813.378 2059.93 818.83C2108.27 824.283 2152.55 836.674 2187.59 854.547C2225.09 873.71 2250.21 898.279 2259.6 924.955C2268.98 951.63 2262.17 979.135 2240.09 1003.78C2218 1028.42 2181.69 1049.01 2136.04 1062.8C2090.38 1076.58 2037.57 1082.89 1984.69 1080.89C1931.81 1078.88 1881.4 1068.66 1840.23 1051.58C1799.05 1034.5 1769.08 1011.4 1754.35 985.361C1739.61 959.325 1740.81 931.608 1757.79 905.932C1774.77 880.255 1806.72 857.85 1849.34 841.724L1573.55 579.922C1532.98 587.48 1489.38 589.761 1446.66 586.559C1403.94 583.357 1363.45 574.772 1328.84 561.579L1098.64 679.243C1129.44 700.296 1147.32 725.55 1150.02 751.803C1152.71 778.056 1140.1 804.127 1113.78 826.713C1087.46 849.299 1048.62 867.383 1002.17 878.674C955.726 889.965 903.768 893.953 852.882 890.135C801.997 886.317 754.474 874.864 716.335 857.226C678.196 839.589 651.158 816.561 638.647 791.062C626.136 765.562 628.716 738.738 646.058 713.988C663.401 689.239 694.726 667.677 736.064 652.037L460.277 390.235C404.718 400.635 343.878 401.027 287.824 391.345C231.771 381.663 183.866 362.488 152.036 336.994C120.207 311.499 106.362 281.213 112.794 251.149C119.225 221.084 145.547 193.043 187.402 171.667L187.411 171.672ZM1872.7 1015.51C1889.93 1024.31 1910.38 1031.3 1932.9 1036.07C1955.41 1040.83 1979.54 1043.29 2003.9 1043.29C2028.27 1043.29 2052.4 1040.83 2074.91 1036.06C2097.43 1031.3 2117.88 1024.31 2135.11 1015.5C2152.34 1006.7 2166.01 996.24 2175.33 984.733C2184.66 973.225 2189.46 960.891 2189.46 948.436C2189.46 935.98 2184.66 923.647 2175.33 912.139C2166.01 900.632 2152.34 890.176 2135.11 881.369C2100.31 863.582 2053.11 853.589 2003.9 853.59C1954.69 853.59 1907.49 863.583 1872.69 881.371C1837.89 899.159 1818.35 923.284 1818.35 948.439C1818.35 973.594 1837.9 997.719 1872.7 1015.51V1015.51ZM1615.58 522.319C1650.32 504.517 1669.84 480.397 1669.84 455.25C1669.84 430.103 1650.32 405.983 1615.58 388.181C1580.78 370.394 1533.58 360.4 1484.37 360.399C1435.16 360.398 1387.96 370.39 1353.17 388.177C1318.37 405.963 1298.82 430.087 1298.81 455.242C1298.81 480.397 1318.36 504.522 1353.16 522.309L1353.17 522.319L1353.18 522.328C1388.01 540.085 1435.19 550.056 1484.38 550.055C1533.57 550.053 1580.75 540.078 1615.58 522.319V522.319ZM759.415 825.819C794.214 843.606 841.411 853.598 890.623 853.598C939.836 853.597 987.032 843.604 1021.83 825.816C1056.63 808.029 1076.18 783.904 1076.18 758.748C1076.17 733.593 1056.62 709.468 1021.83 691.681L1021.82 691.672C987.015 673.885 939.816 663.894 890.603 663.896C841.389 663.898 794.193 673.892 759.397 691.681C724.6 709.47 705.054 733.596 705.057 758.752C705.061 783.908 724.614 808.032 759.415 825.819V825.819ZM239.884 332.631C257.115 341.439 277.57 348.425 300.083 353.191C322.596 357.958 346.725 360.411 371.092 360.41C420.304 360.41 467.501 350.417 502.298 332.629C519.529 323.821 533.196 313.365 542.521 301.858C551.845 290.35 556.644 278.016 556.644 265.561C556.643 240.406 537.093 216.281 502.294 198.494C467.495 180.707 420.298 170.714 371.086 170.715C321.873 170.715 274.677 180.708 239.88 198.496C205.082 216.284 185.533 240.409 185.534 265.564C185.535 290.719 205.085 314.844 239.884 332.631V332.631Z" fill="#9BB9CC"/>
</svg>
