<svg width="202" height="264" viewBox="0 0 202 264" fill="none" xmlns="http://www.w3.org/2000/svg">
<path d="M175.546 64.5351C169.915 61.4295 167.985 53.3953 171.85 46.3889C175.714 39.3825 183.538 36.7275 189.169 39.8331C194.8 42.9387 196.729 50.9729 192.865 57.9793C189.001 64.9857 181.177 67.6407 175.546 64.5351Z" fill="white" stroke="#9BB9CC" stroke-width="3"/>
<path d="M130.546 138.535C124.915 135.429 122.985 127.395 126.849 120.389C130.714 113.383 138.538 110.727 144.169 113.833C149.8 116.939 151.729 124.973 147.865 131.979C144.001 138.986 136.177 141.641 130.546 138.535Z" fill="white" stroke="#9BB9CC" stroke-width="3"/>
<path d="M46.5457 162.535C40.9145 159.429 38.9854 151.395 42.8495 144.389C46.7136 137.382 54.5379 134.727 60.1691 137.833C65.8002 140.939 67.7293 148.973 63.8653 155.979C60.0012 162.986 52.1768 165.641 46.5457 162.535Z" fill="white" stroke="#9BB9CC" stroke-width="3"/>
<path d="M19.5457 227.535C13.9146 224.429 11.9855 216.395 15.8496 209.389C19.7136 202.383 27.538 199.727 33.1691 202.833C38.8003 205.939 40.7294 213.973 36.8653 220.979C33.0012 227.986 25.1769 230.641 19.5457 227.535Z" fill="white" stroke="#9BB9CC" stroke-width="3"/>
<line x1="173.442" y1="63.2336" x2="145.442" y2="116.234" stroke="#9BB9CC"/>
<line x1="45.4706" y1="164.169" x2="31.4706" y2="203.169" stroke="#9BB9CC"/>
<line x1="64.8864" y1="145.513" x2="124.886" y2="131.513" stroke="#9BB9CC"/>
</svg>
