<svg width="99" height="79" viewBox="0 0 99 79" fill="none" xmlns="http://www.w3.org/2000/svg">
<path d="M31.7883 31.2579L1.09144 50.9604C0.802206 51.1465 0.594874 51.446 0.514942 51.793C0.43501 52.14 0.489009 52.5063 0.665089 52.8114L2.00307 55.1259C2.06471 55.2326 2.2452 55.2845 2.36349 55.2764L24.1123 54.6314C24.168 54.6297 24.2223 54.6126 24.2697 54.5816C24.3184 54.5505 24.3583 54.5061 24.3851 54.4532L34.4254 34.7107C34.4834 34.6025 34.6375 34.3161 34.6886 34.1969C34.7506 34.0529 34.8201 33.9139 34.7413 33.7776L33.5446 31.7074C33.368 31.4027 33.0839 31.1843 32.7546 31.1C32.4254 31.0157 32.0779 31.0725 31.7883 31.2579V31.2579Z" fill="#9AB9CD"/>
<path d="M36.7639 37.5995C36.7073 37.6012 36.6522 37.6186 36.604 37.65C36.5558 37.6813 36.5164 37.7255 36.4896 37.7781L30.8082 48.9512C30.7854 48.9955 30.7724 49.0447 30.7702 49.095C30.7679 49.1453 30.7764 49.1956 30.7951 49.2419C30.8137 49.2883 30.8421 49.3297 30.878 49.363C30.9139 49.3963 30.9564 49.4206 31.0025 49.4342L45.6738 53.8092C45.716 53.822 45.7602 53.8253 45.8037 53.8191C45.8472 53.8129 45.8889 53.7972 45.9263 53.773C45.9986 53.7264 46.0504 53.6516 46.0704 53.5649C46.0904 53.4782 46.0769 53.3866 46.033 53.3103L37.0445 37.7618C37.0155 37.7111 36.9742 37.6694 36.9249 37.6409C36.8757 37.6124 36.8201 37.5981 36.7639 37.5995Z" fill="#9AB9CD"/>
<path d="M29.3221 52.4325C29.2522 52.4112 29.1775 52.4159 29.1104 52.4457C29.0433 52.4755 28.988 52.5286 28.9536 52.5962L26.6765 57.0749C26.5418 57.335 26.3451 57.5537 26.1059 57.7095C25.8667 57.8653 25.5932 57.9529 25.3121 57.9636L21.1016 58.0882C21.0337 58.0903 20.9681 58.1151 20.9145 58.159C20.8609 58.203 20.8219 58.2638 20.8033 58.3327L15.6437 77.539C15.6303 77.5896 15.6283 77.6428 15.6379 77.6943C15.6474 77.7459 15.6683 77.7944 15.6988 77.8359C15.7293 77.8774 15.7686 77.9109 15.8135 77.9336C15.8585 77.9563 15.9078 77.9677 15.9576 77.9667C16.2082 77.9626 16.4177 77.9028 16.5988 77.7866L46.9818 58.2855C47.035 58.2514 47.0776 58.2017 47.1042 58.1424C47.1308 58.0831 47.1403 58.0168 47.1314 57.9519C47.1231 57.887 47.097 57.8261 47.0561 57.7768C47.0153 57.7274 46.9617 57.6918 46.9018 57.6742L29.3221 52.4325Z" fill="#9AB9CD"/>
<path d="M17.4005 58.6364C17.4143 58.5856 17.4165 58.5322 17.407 58.4803C17.3975 58.4285 17.3765 58.3797 17.3458 58.338C17.3152 58.2963 17.2756 58.2627 17.2303 58.2401C17.1851 58.2174 17.1354 58.2063 17.0853 58.2076L4.55743 58.5794C4.5016 58.5812 4.44721 58.5985 4.39968 58.6294C4.35216 58.6603 4.31316 58.7038 4.28661 58.7556C4.26005 58.8073 4.24686 58.8655 4.24835 58.9244C4.24984 58.9832 4.26596 59.0406 4.29511 59.0908L12.7797 73.7678C12.8118 73.8241 12.8589 73.8692 12.9151 73.8975C12.9712 73.9259 13.0341 73.9363 13.0958 73.9274C13.1575 73.9185 13.2154 73.8907 13.2623 73.8475C13.3092 73.8043 13.343 73.7476 13.3596 73.6843L17.4005 58.6364V58.6364Z" fill="#9AB9CD"/>
<path d="M65.9231 0H40.0769C37.9348 0 35.8804 0.895686 34.3657 2.49002C32.851 4.08435 32 6.24672 32 8.50145V66.3113C32 68.566 32.851 70.7284 34.3657 72.3227C35.8804 73.9171 37.9348 74.8128 40.0769 74.8128H65.9231C68.0652 74.8128 70.1196 73.9171 71.6343 72.3227C73.149 70.7284 74 68.566 74 66.3113V8.50145C74 6.24672 73.149 4.08435 71.6343 2.49002C70.1196 0.895686 68.0652 0 65.9231 0V0ZM53 71.4122C50.3185 71.4122 48.1538 69.1338 48.1538 66.3113C48.1538 63.4888 50.3185 61.2104 53 61.2104C55.6815 61.2104 57.8462 63.4888 57.8462 66.3113C57.8462 69.1338 55.6815 71.4122 53 71.4122ZM67.5385 57.8099H38.4615V10.2017H67.5385V57.8099Z" fill="#9BB9CC"/>
<line x1="98.5" x2="98.5" y2="74" stroke="#9BB9CC"/>
</svg>
