<svg width="12" height="12" viewBox="0 0 12 12" fill="none" xmlns="http://www.w3.org/2000/svg">
<path d="M11 5.00001C10.9999 4.36344 10.8479 3.73608 10.5566 3.17008C10.2653 2.60408 9.84308 2.11577 9.3251 1.74575C8.80712 1.37573 8.2083 1.13467 7.57842 1.04262C6.94854 0.950571 6.30579 1.01018 5.70358 1.2165C5.10137 1.42281 4.5571 1.76987 4.116 2.22884C3.6749 2.68781 3.34971 3.24542 3.16745 3.85535C2.98519 4.46527 2.95114 5.10988 3.06811 5.73561C3.18509 6.36134 3.44971 6.95012 3.84 7.45301L1.146 10.146C1.05225 10.2399 0.999627 10.3672 0.999721 10.4999C0.999815 10.6325 1.05261 10.7598 1.1465 10.8535C1.24039 10.9473 1.36767 10.9999 1.50035 10.9998C1.63304 10.9997 1.76025 10.9469 1.854 10.853L4.547 8.16001C5.13827 8.61906 5.84649 8.90298 6.59112 8.9795C7.33575 9.05602 8.0869 8.92205 8.75918 8.59285C9.43145 8.26364 9.99785 7.7524 10.394 7.11725C10.7901 6.48211 11.0001 5.74856 11 5.00001V5.00001ZM7 2.00001C7.79565 2.00001 8.55871 2.31608 9.12132 2.87869C9.68393 3.4413 10 4.20436 10 5.00001C10 5.79566 9.68393 6.55872 9.12132 7.12133C8.55871 7.68394 7.79565 8.00001 7 8.00001C6.20435 8.00001 5.44129 7.68394 4.87868 7.12133C4.31607 6.55872 4 5.79566 4 5.00001C4 4.20436 4.31607 3.4413 4.87868 2.87869C5.44129 2.31608 6.20435 2.00001 7 2.00001V2.00001Z" fill="#D7D7D7"/>
</svg>
